<svg width="16" height="14" viewBox="0 0 16 14" fill="none" xmlns="http://www.w3.org/2000/svg">
<path d="M4.40069 0H0.422987C0.18709 0 0 0.194014 0 0.426831V3.90356C0 4.13638 0.18709 4.33039 0.422987 4.33039H4.40069C4.63659 4.33039 4.82368 4.13638 4.82368 3.90356V0.426831C4.82368 0.194014 4.63659 0 4.40069 0Z" fill="#003970"/>
<path d="M9.94885 0H5.97114C5.73525 0 5.54816 0.194014 5.54816 0.426831V3.90356C5.54816 4.13638 5.73525 4.33039 5.97114 4.33039H9.94885C10.1847 4.33039 10.3718 4.13638 10.3718 3.90356V0.426831C10.3718 0.194014 10.1847 0 9.94885 0Z" fill="#003970"/>
<path d="M15.5851 0H11.5505C11.3227 0 11.1357 0.178493 11.1357 0.395788V3.9346C11.1357 4.1519 11.3227 4.33039 11.5505 4.33039H15.5851C15.8129 4.33039 16 4.1519 16 3.9346V0.395788C16 0.178493 15.8129 0 15.5851 0ZM15.1296 3.52329H12.006V0.807098H15.1296V3.52329Z" fill="#E5564E"/>
<path d="M4.42483 4.82736H0.447126C0.21123 4.82736 0.0241394 5.02138 0.0241394 5.25419V8.74644C0.0241394 8.98702 0.21123 9.17327 0.447126 9.17327H4.42483C4.66073 9.17327 4.84782 8.97926 4.84782 8.74644V5.25419C4.84782 5.02138 4.66073 4.82736 4.42483 4.82736Z" fill="#003970"/>
<path d="M9.97308 4.82703H5.99537C5.75948 4.82703 5.57239 5.02104 5.57239 5.25386V8.74611C5.57239 8.98668 5.75948 9.17294 5.99537 9.17294H9.97308C10.209 9.17294 10.3961 8.97892 10.3961 8.74611V5.25386C10.3961 5.02104 10.209 4.82703 9.97308 4.82703Z" fill="#003970"/>
<path d="M15.5363 4.82703H11.5586C11.3227 4.82703 11.1357 5.02104 11.1357 5.25386V8.74611C11.1357 8.98668 11.3227 9.17294 11.5586 9.17294H15.5363C15.7722 9.17294 15.9593 8.97892 15.9593 8.74611V5.25386C15.9593 5.02104 15.7722 4.82703 15.5363 4.82703Z" fill="#003970"/>
<path d="M4.42483 9.65411H0.447126C0.21123 9.65411 0.0241394 9.84813 0.0241394 10.0809V13.5732C0.0241394 13.8138 0.21123 14 0.447126 14H4.42483C4.66073 14 4.84782 13.806 4.84782 13.5732V10.0809C4.84782 9.84813 4.66073 9.65411 4.42483 9.65411Z" fill="#003970"/>
<path d="M9.97308 9.65411H5.99537C5.75948 9.65411 5.57239 9.84813 5.57239 10.0809V13.5732C5.57239 13.8138 5.75948 14 5.99537 14H9.97308C10.209 14 10.3961 13.806 10.3961 13.5732V10.0809C10.3961 9.84813 10.209 9.65411 9.97308 9.65411Z" fill="#003970"/>
<path d="M15.5605 9.65411H11.5828C11.3469 9.65411 11.1599 9.84813 11.1599 10.0809V13.5732C11.1599 13.8138 11.3469 14 11.5828 14H15.5605C15.7964 14 15.9835 13.806 15.9835 13.5732V10.0809C15.9835 9.84813 15.7964 9.65411 15.5605 9.65411Z" fill="#003970"/>
</svg>
