<svg width="8" height="9" viewBox="0 0 8 9" fill="none" xmlns="http://www.w3.org/2000/svg">
<path fill-rule="evenodd" clip-rule="evenodd" d="M8 4.5C8 5.56087 7.57857 6.57828 6.82843 7.32843C6.07828 8.07857 5.06087 8.5 4 8.5C2.93913 8.5 1.92172 8.07857 1.17157 7.32843C0.421427 6.57828 0 5.56087 0 4.5C0 3.43913 0.421427 2.42172 1.17157 1.67157C1.92172 0.921427 2.93913 0.5 4 0.5C5.06087 0.5 6.07828 0.921427 6.82843 1.67157C7.57857 2.42172 8 3.43913 8 4.5ZM6.015 2.985C5.97928 2.94941 5.93676 2.92139 5.88997 2.90261C5.84317 2.88383 5.79307 2.87468 5.74266 2.87571C5.69225 2.87673 5.64257 2.88792 5.59658 2.90858C5.55059 2.92925 5.50924 2.95898 5.475 2.996L3.7385 5.2085L2.692 4.1615C2.62091 4.09526 2.52689 4.0592 2.42974 4.06091C2.33259 4.06263 2.2399 4.10198 2.17119 4.17069C2.10248 4.2394 2.06313 4.33209 2.06141 4.42924C2.0597 4.52639 2.09576 4.62041 2.162 4.6915L3.485 6.015C3.52064 6.05058 3.56308 6.07861 3.60979 6.09743C3.6565 6.11624 3.70652 6.12546 3.75687 6.12453C3.80722 6.1236 3.85687 6.11253 3.90285 6.092C3.94883 6.07146 3.9902 6.04187 4.0245 6.005L6.0205 3.51C6.08855 3.43925 6.12614 3.34464 6.1252 3.24648C6.12427 3.14832 6.08488 3.05444 6.0155 2.985H6.015Z" fill="black"/>
</svg>
