<svg width="10" height="12" viewBox="0 0 10 12" fill="none" xmlns="http://www.w3.org/2000/svg">
<path d="M5.9342 7.04783C6.75133 7.20079 7.59621 7.05199 8.31192 6.62907C9.02763 6.20616 9.56553 5.53787 9.82573 4.74831C10.253 3.48177 9.87827 2.03633 8.88069 1.1432C8.50137 0.79632 8.04908 0.538938 7.55712 0.390001C7.06516 0.241064 6.54606 0.204365 6.03804 0.282605C5.53003 0.360846 5.04602 0.552034 4.62167 0.842092C4.19733 1.13215 3.84344 1.51369 3.58607 1.95863C3.23125 2.57313 3.07588 3.2826 3.14139 3.98915C3.2069 4.6957 3.49006 5.3645 3.95181 5.9033L2.70712 8.05915L1.71592 7.48688C1.17076 7.17214 0.467204 7.36066 0.152456 7.90581C-0.162292 8.45097 0.0262265 9.15453 0.571386 9.46928L1.56258 10.0415C1.24784 10.5867 1.43635 11.2903 1.98151 11.605C2.52667 11.9198 3.23023 11.7312 3.54498 11.1861L5.9342 7.04783ZM5.56846 3.10316C5.88321 2.558 6.58677 2.36949 7.13193 2.68423C7.67709 2.99898 7.86561 3.70254 7.55086 4.2477C7.23611 4.79286 6.53255 4.98138 5.98739 4.66663C5.44223 4.35188 5.25372 3.64832 5.56846 3.10316Z" fill="black"/>
</svg>
