<svg width="80" height="46" viewBox="0 0 80 46" fill="none" xmlns="http://www.w3.org/2000/svg">
<path d="M0.643296 15.315C4.46658 3.23977 33.7429 0.726096 42.5931 1.44486C79.2328 2.52296 80.295 20.4902 72.8608 28.7919C67.7093 34.5447 65.4267 39.0343 53.2134 44.4251C47.7689 46.8282 22.4148 48.1986 20.8217 35.2608C19.2287 22.323 -4.13581 30.4091 0.643296 15.315Z" fill="#F5FAFF"/>
<rect x="18.6248" y="6.9082" width="44.312" height="30.4703" rx="0.5" fill="white" stroke="#82BCFF"/>
<rect x="18.3785" y="11.7379" width="44.8044" height="0.507586" fill="#82BCFF" stroke="#82BCFF" stroke-width="0.507586"/>
<rect x="32.977" y="6.65994" width="29.9517" height="0.503465" transform="rotate(90 32.977 6.65994)" fill="#82BCFF" stroke="#82BCFF" stroke-width="0.503465"/>
<rect x="48.081" y="6.65994" width="29.9517" height="0.503465" transform="rotate(90 48.081 6.65994)" fill="#82BCFF" stroke="#82BCFF" stroke-width="0.503465"/>
<rect x="18.3785" y="16.8137" width="44.8044" height="0.507586" fill="#82BCFF" stroke="#82BCFF" stroke-width="0.507586"/>
<rect x="18.3785" y="21.8897" width="44.8044" height="0.507586" fill="#82BCFF" stroke="#82BCFF" stroke-width="0.507586"/>
<rect x="18.3785" y="26.9655" width="44.8044" height="0.507586" fill="#82BCFF" stroke="#82BCFF" stroke-width="0.507586"/>
<rect x="18.3785" y="32.0414" width="44.8044" height="0.507586" fill="#82BCFF" stroke="#82BCFF" stroke-width="0.507586"/>
<path fill-rule="evenodd" clip-rule="evenodd" d="M62.0318 38.4687C61.3599 38.7493 60.6398 38.8937 59.9125 38.8937C58.4437 38.8937 57.035 38.3055 55.9964 37.2584C54.9578 36.2113 54.3744 34.7911 54.3744 33.3103C54.3744 31.8295 54.9578 30.4093 55.9964 29.3622C57.035 28.3151 58.4437 27.7268 59.9125 27.7268C60.6398 27.7268 61.3599 27.8713 62.0318 28.1519C62.7038 28.4324 63.3143 28.8437 63.8285 29.3622C64.3428 29.8807 64.7507 30.4962 65.0291 31.1736C65.3074 31.851 65.4506 32.5771 65.4506 33.3103C65.4506 34.0435 65.3074 34.7696 65.0291 35.447C64.7507 36.1244 64.3428 36.7399 63.8285 37.2584C63.3143 37.7768 62.7038 38.1881 62.0318 38.4687ZM65.1909 37.2119C66.0088 36.0872 66.4575 34.7221 66.4575 33.3103C66.4575 31.5602 65.768 29.8818 64.5405 28.6444C63.3131 27.4069 61.6483 26.7117 59.9125 26.7117C58.1766 26.7117 56.5119 27.4069 55.2844 28.6444C54.057 29.8818 53.3674 31.5602 53.3674 33.3103C53.3674 35.0603 54.057 36.7387 55.2844 37.9762C56.5119 39.2137 58.1766 39.9089 59.9125 39.9089C61.3131 39.9089 62.6673 39.4563 63.783 38.6315C63.8132 38.6729 63.8465 38.7121 63.8827 38.7485L67.7594 42.657C67.9484 42.8473 68.2046 42.9542 68.4717 42.9541C68.7388 42.954 68.9949 42.8469 69.1837 42.6564C69.3725 42.466 69.4785 42.2077 69.4784 41.9384C69.4784 41.6691 69.3722 41.4108 69.1832 41.2205L65.3065 37.3121C65.2705 37.2757 65.2318 37.2422 65.1909 37.2119Z" fill="#82BCFF"/>
<ellipse cx="59.9124" cy="33.3102" rx="5.53813" ry="5.58344" fill="white"/>
<rect width="1.34335" height="4.05838" transform="matrix(0.963703 0.266976 -0.262961 0.964806 12.9763 40.8171)" fill="#C6E0FF"/>
<path d="M15.2097 42.8396L14.854 44.1448L10.9702 43.0689L11.3259 41.7637L15.2097 42.8396Z" fill="#C6E0FF"/>
<path d="M3.08165 29.8866C2.8658 29.5008 3.00226 29.0157 3.37963 28.801C3.75701 28.5864 4.23946 28.7196 4.45532 29.1053C4.67118 29.4911 4.53471 29.9762 4.15734 30.1909C3.77996 30.4055 3.29751 30.2724 3.08165 29.8866Z" stroke="#E2F0FF"/>
<path d="M75.9371 20.0763C75.5245 19.3389 75.7842 18.4074 76.5111 17.9939C77.2381 17.5804 78.1633 17.8381 78.5759 18.5755C78.9885 19.3129 78.7288 20.2445 78.0018 20.6579C77.2749 21.0714 76.3497 20.8137 75.9371 20.0763Z" stroke="#E2F0FF"/>
<rect width="1.0074" height="3.04413" transform="matrix(0.971131 -0.238548 0.234907 0.972018 68.1274 0.480835)" fill="#C6E0FF"/>
<path d="M70.323 0.98645L70.5614 1.97277L67.6264 2.69371L67.3881 1.70739L70.323 0.98645Z" fill="#C6E0FF"/>
</svg>
