<svg width="16" height="14" viewBox="0 0 16 14" fill="none" xmlns="http://www.w3.org/2000/svg">
<path d="M14 1C14.5523 1 15 1.44772 15 2C15 2.55228 14.5523 3 14 3H7C6.44772 3 6 2.55228 6 2C6 1.44772 6.44772 1 7 1H14ZM16 1C16 0.447715 15.5523 0 15 0H6C5.44771 0 5 0.447715 5 1V3C5 3.55228 5.44772 4 6 4H15C15.5523 4 16 3.55228 16 3V1Z" fill="white"/>
<path d="M0 1C0 0.447715 0.447715 0 1 0H3C3.55228 0 4 0.447715 4 1V3C4 3.55228 3.55228 4 3 4H1C0.447715 4 0 3.55228 0 3V1Z" fill="white"/>
<path d="M14 6C14.5523 6 15 6.44772 15 7C15 7.55228 14.5523 8 14 8H7C6.44772 8 6 7.55228 6 7C6 6.44772 6.44772 6 7 6H14ZM16 6C16 5.44772 15.5523 5 15 5H6C5.44771 5 5 5.44772 5 6V8C5 8.55228 5.44772 9 6 9H15C15.5523 9 16 8.55228 16 8V6Z" fill="white"/>
<path d="M0 6C0 5.44772 0.447715 5 1 5H3C3.55228 5 4 5.44772 4 6V8C4 8.55228 3.55228 9 3 9H1C0.447715 9 0 8.55228 0 8V6Z" fill="white"/>
<path d="M14 11C14.5523 11 15 11.4477 15 12C15 12.5523 14.5523 13 14 13H7C6.44772 13 6 12.5523 6 12C6 11.4477 6.44772 11 7 11H14ZM16 11C16 10.4477 15.5523 10 15 10H6C5.44771 10 5 10.4477 5 11V13C5 13.5523 5.44772 14 6 14H15C15.5523 14 16 13.5523 16 13V11Z" fill="white"/>
<path d="M0 11C0 10.4477 0.447715 10 1 10H3C3.55228 10 4 10.4477 4 11V13C4 13.5523 3.55228 14 3 14H1C0.447715 14 0 13.5523 0 13V11Z" fill="white"/>
</svg>
