<svg width="16" height="17" viewBox="0 0 16 17" fill="none" xmlns="http://www.w3.org/2000/svg">
<path d="M7.95366 0.5C6.13654 0.504272 4.32048 1.12219 2.84317 2.35427L2.84618 2.35728C5.60983 0.11192 9.67904 0.27632 12.2511 2.85099C14.391 4.99301 14.8643 8.17266 13.6713 10.7738C13.5085 11.2424 13.583 11.5773 13.8627 11.8572C14.1937 12.1886 14.8329 12.2276 15.2029 11.8572C15.2452 11.8149 15.3977 11.6266 15.4378 11.4726C16.5702 8.58898 15.9729 5.18141 13.6449 2.85102C12.0739 1.27851 10.0131 0.495216 7.95371 0.500064L7.95366 0.5ZM1.43 4.8793C1.19772 4.88506 0.964844 4.96877 0.79137 5.14242C0.749124 5.18472 0.596572 5.37298 0.556501 5.52707C-0.575951 8.41064 0.0213717 11.8182 2.34944 14.1486C5.30653 17.1087 9.99951 17.2738 13.1511 14.6453L13.1481 14.6423C10.3844 16.8877 6.31522 16.7233 3.74312 14.1486C1.60325 12.0065 1.12997 8.82695 2.32294 6.22583C2.48575 5.75723 2.41122 5.42232 2.13155 5.14237C1.95569 4.96634 1.69322 4.87274 1.42996 4.87925L1.43 4.8793Z" fill="#7B7B7B"/>
</svg>
