<svg width="24" height="24" viewBox="0 0 24 24" fill="none" xmlns="http://www.w3.org/2000/svg">
<path d="M0 12C0 5.37258 5.37258 0 12 0C18.6274 0 24 5.37258 24 12C24 18.6274 18.6274 24 12 24C5.37258 24 0 18.6274 0 12Z" fill="#064482"/>
<path d="M11.043 14.1396V13.8867C11.043 13.627 11.0589 13.3923 11.0908 13.1826C11.1273 12.973 11.1888 12.777 11.2754 12.5947C11.3665 12.4124 11.4873 12.2347 11.6377 12.0615C11.7881 11.8838 11.9772 11.6992 12.2051 11.5078C12.4238 11.321 12.6107 11.1523 12.7656 11.002C12.9206 10.847 13.0459 10.6921 13.1416 10.5371C13.2419 10.3776 13.3148 10.209 13.3604 10.0312C13.4105 9.84896 13.4355 9.63704 13.4355 9.39551C13.4355 9.17676 13.4014 8.97852 13.333 8.80078C13.2646 8.61849 13.1644 8.46354 13.0322 8.33594C12.9046 8.20378 12.7428 8.10352 12.5469 8.03516C12.3555 7.96224 12.1322 7.92578 11.877 7.92578C11.4987 7.92578 11.1387 7.98503 10.7969 8.10352C10.4551 8.22201 10.1247 8.35872 9.80566 8.51367L9.375 7.52246C9.74414 7.33105 10.1429 7.16927 10.5713 7.03711C10.9997 6.90039 11.4349 6.83203 11.877 6.83203C12.3008 6.83203 12.6813 6.89128 13.0186 7.00977C13.3604 7.1237 13.6497 7.29004 13.8867 7.50879C14.1237 7.72754 14.306 7.99642 14.4336 8.31543C14.5612 8.62988 14.625 8.98535 14.625 9.38184C14.625 9.68717 14.5931 9.96061 14.5293 10.2021C14.4701 10.4391 14.3789 10.6602 14.2559 10.8652C14.1328 11.0703 13.9801 11.2686 13.7979 11.46C13.6156 11.6514 13.4014 11.8542 13.1553 12.0684C12.9183 12.2734 12.7246 12.4535 12.5742 12.6084C12.4238 12.7588 12.3053 12.9069 12.2188 13.0527C12.1322 13.194 12.0729 13.3398 12.041 13.4902C12.0091 13.6406 11.9932 13.8161 11.9932 14.0166V14.1396H11.043ZM10.7148 16.2109C10.7148 16.0378 10.7376 15.8919 10.7832 15.7734C10.8288 15.6504 10.8903 15.5524 10.9678 15.4795C11.0452 15.402 11.1364 15.3473 11.2412 15.3154C11.346 15.279 11.46 15.2607 11.583 15.2607C11.7015 15.2607 11.8132 15.279 11.918 15.3154C12.0273 15.3473 12.1208 15.402 12.1982 15.4795C12.2757 15.5524 12.3372 15.6504 12.3828 15.7734C12.4284 15.8919 12.4512 16.0378 12.4512 16.2109C12.4512 16.3796 12.4284 16.5254 12.3828 16.6484C12.3372 16.7669 12.2757 16.8649 12.1982 16.9424C12.1208 17.0199 12.0273 17.0768 11.918 17.1133C11.8132 17.1497 11.7015 17.168 11.583 17.168C11.46 17.168 11.346 17.1497 11.2412 17.1133C11.1364 17.0768 11.0452 17.0199 10.9678 16.9424C10.8903 16.8649 10.8288 16.7669 10.7832 16.6484C10.7376 16.5254 10.7148 16.3796 10.7148 16.2109Z" fill="white"/>
<path d="M12 23C5.92487 23 1 18.0751 1 12H-1C-1 19.1797 4.8203 25 12 25V23ZM23 12C23 18.0751 18.0751 23 12 23V25C19.1797 25 25 19.1797 25 12H23ZM12 1C18.0751 1 23 5.92487 23 12H25C25 4.8203 19.1797 -1 12 -1V1ZM12 -1C4.8203 -1 -1 4.8203 -1 12H1C1 5.92487 5.92487 1 12 1V-1Z" fill="#064482"/>
</svg>
