<svg width="50" height="38" viewBox="0 0 50 38" fill="none" xmlns="http://www.w3.org/2000/svg">
<g clip-path="url(#clip0)">
<path d="M36.1758 10.9955C34.9374 9.58735 33.4472 8.39892 31.7759 7.49011" stroke="#C6E0FF" stroke-miterlimit="10"/>
<path d="M15.0122 8.33899C13.0791 9.65725 11.448 11.385 10.2397 13.3923" stroke="#716767" stroke-miterlimit="10"/>
<path d="M15.0122 8.33899C13.0791 9.65725 11.448 11.385 10.2397 13.3923" stroke="#C6E0FF" stroke-miterlimit="10"/>
<path d="M15.6768 35.1438C18.1234 36.6418 21.013 37.5007 24.094 37.5007C26.2587 37.5007 28.3328 37.0713 30.2156 36.3023" stroke="#C6E0FF" stroke-miterlimit="10"/>
<path fill-rule="evenodd" clip-rule="evenodd" d="M49.0536 20.513L47.3923 22.011C47.4326 22.1209 47.4628 22.2307 47.493 22.3406C47.5836 22.6702 47.6642 22.9997 47.7246 23.3293L49.9296 23.9984C50.0403 25.0271 50.0202 26.0457 49.8893 27.0344L47.6742 27.4738C47.5736 27.9133 47.4527 28.3427 47.3017 28.7621L48.9127 30.4299C48.4999 31.3387 47.9763 32.1976 47.352 32.9766L45.1672 32.2376C44.8651 32.5571 44.5429 32.8568 44.2006 33.1464L44.7947 35.3734C43.9892 35.9327 43.1032 36.3921 42.1467 36.7416L40.586 35.0239C40.5558 35.0339 40.5357 35.0439 40.5055 35.0439C40.4249 35.0638 40.3444 35.0938 40.2538 35.1138C39.9316 35.1937 39.5993 35.2536 39.2771 35.3035L38.6932 37.4807C37.6662 37.5506 36.6493 37.4907 35.6626 37.3209L35.139 35.0838C34.696 34.974 34.263 34.8341 33.8402 34.6644L32.2191 36.2023C31.2928 35.7529 30.4169 35.2037 29.6114 34.5445L30.2659 32.3874C29.9336 32.0778 29.6215 31.7382 29.3194 31.3787L27.1144 31.888C26.5305 31.0591 26.027 30.1503 25.6344 29.1816L27.2957 27.6836C27.2957 27.6636 27.2856 27.6536 27.2856 27.6336C27.2554 27.5338 27.2252 27.4439 27.195 27.344C27.1044 27.0144 27.0238 26.6849 26.9634 26.3553L24.7584 25.6862C24.6477 24.6575 24.6678 23.6389 24.7987 22.6502L27.0138 22.2108C27.1044 21.7713 27.2353 21.3419 27.3863 20.9225L25.7653 19.2547C26.1781 18.3458 26.7016 17.487 27.3259 16.708L29.5107 17.447C29.8128 17.1274 30.135 16.8278 30.4773 16.5382L29.8833 14.3112C30.6887 13.7519 31.5748 13.2925 32.5313 12.943L34.0919 14.6607C34.112 14.6507 34.1322 14.6507 34.1523 14.6407C34.2429 14.6108 34.3335 14.5908 34.4241 14.5708C34.7463 14.4909 35.0786 14.431 35.4008 14.3811L35.9848 12.2039C37.0117 12.134 38.0286 12.1939 39.0254 12.3637L39.549 14.6008C39.992 14.7106 40.4249 14.8504 40.8478 15.0202L42.4588 13.4723C43.3851 13.9217 44.261 14.4809 45.0665 15.1301L44.4121 17.2872C44.7443 17.5968 45.0564 17.9364 45.3585 18.2959L47.5635 17.7866C48.1676 18.6355 48.661 19.5443 49.0536 20.513ZM39.9316 29.2515C42.2977 27.9532 43.0931 24.9372 41.7036 22.5204C40.3142 20.1035 37.2634 19.1947 34.8974 20.493C32.5313 21.7913 31.7359 24.8073 33.1253 27.2242C34.5248 29.641 37.5655 30.5498 39.9316 29.2515Z" fill="#C6E0FF"/>
<path fill-rule="evenodd" clip-rule="evenodd" d="M30.0242 4.74379L29.0778 5.60266C29.0979 5.66258 29.1181 5.73249 29.1382 5.79241C29.1886 5.98216 29.2288 6.17191 29.2691 6.35167L30.5277 6.73117C30.5881 7.3204 30.578 7.89964 30.5075 8.4589L29.2389 8.70857C29.1886 8.95824 29.108 9.20792 29.0275 9.4476L29.9538 10.4063C29.7222 10.9257 29.4201 11.415 29.0677 11.8644L27.8193 11.445C27.6481 11.6247 27.4568 11.8045 27.2655 11.9643L27.6078 13.2326C27.1447 13.5522 26.6412 13.8119 26.0975 14.0116L25.2015 13.0229C25.1813 13.0229 25.1712 13.0329 25.1511 13.0329C25.1008 13.0429 25.0605 13.0628 25.0102 13.0728C24.8289 13.1228 24.6376 13.1527 24.4564 13.1827L24.1241 14.431C23.5402 14.471 22.9562 14.441 22.3924 14.3412L22.0903 13.0628C21.8386 13.0029 21.5869 12.923 21.3452 12.8232L20.429 13.712C19.8954 13.4523 19.402 13.1427 18.9389 12.7632L19.3114 11.5349C19.1201 11.3551 18.9389 11.1653 18.7778 10.9556L17.5192 11.2452C17.187 10.7759 16.895 10.2565 16.6735 9.69727L17.6199 8.8384C17.6199 8.82841 17.6098 8.81843 17.6098 8.80844C17.5897 8.74852 17.5796 8.69858 17.5595 8.63866C17.5091 8.44891 17.4689 8.25916 17.4286 8.0794L16.17 7.6999C16.1096 7.11067 16.1197 6.53144 16.1902 5.97217L17.4588 5.7225C17.5091 5.47283 17.5897 5.22316 17.6702 4.99346L16.7439 4.03472C16.9755 3.5154 17.2776 3.02605 17.63 2.57664L18.8785 2.99609C19.0496 2.81632 19.2309 2.63656 19.4322 2.47677L19.0899 1.20844C19.553 0.888861 20.0565 0.629203 20.6002 0.429465L21.4862 1.40818C21.4963 1.40818 21.5063 1.39819 21.5164 1.39819C21.5667 1.3882 21.6171 1.36823 21.6775 1.35824C21.8587 1.30831 22.05 1.27835 22.2313 1.24839L22.5635 3.04859e-05C23.1475 -0.0399169 23.7315 -0.00995637 24.2953 0.0899122L24.5973 1.36823C24.8491 1.42815 25.1008 1.51803 25.3424 1.60791L26.2586 0.719084C26.7923 0.978743 27.2856 1.28834 27.7488 1.66784L27.3863 2.91619C27.5776 3.09596 27.7588 3.28571 27.93 3.49543L29.1886 3.20581C29.5208 3.67519 29.8027 4.19451 30.0242 4.74379ZM24.8189 9.73722C26.168 8.99819 26.6211 7.27046 25.8257 5.89228C25.0303 4.51409 23.2884 3.99477 21.9393 4.7338C20.5901 5.47283 20.137 7.20056 20.9324 8.57874C21.7278 9.95693 23.4697 10.4762 24.8189 9.73722Z" fill="#C6E0FF"/>
<rect x="9.11426" y="11" width="4" height="2" transform="rotate(33.8539 9.11426 11)" fill="#F5FAFF"/>
<path fill-rule="evenodd" clip-rule="evenodd" d="M20.6807 20.553L19.251 21.8413C19.2812 21.9312 19.3114 22.031 19.3315 22.1209C19.402 22.4006 19.4624 22.6702 19.5127 22.9498L21.3653 23.4791C21.4459 24.338 21.4157 25.1969 21.2848 26.0258L19.402 26.4253C19.3114 26.7948 19.2006 27.1543 19.0697 27.5138L20.4088 28.892C20.0464 29.661 19.5933 30.39 19.0496 31.0492L17.2171 30.46C16.9554 30.7396 16.6734 30.9893 16.3815 31.2389L16.8446 33.0965C16.1499 33.5759 15.3947 33.9753 14.5792 34.2949L13.2804 32.8768C13.2602 32.8868 13.23 32.8868 13.2099 32.8967C13.1394 32.9167 13.0689 32.9367 12.9984 32.9567C12.7266 33.0266 12.4447 33.0865 12.1628 33.1364L11.6291 34.954C10.7632 35.0339 9.89736 34.994 9.06168 34.8741L8.65894 33.0066C8.28641 32.9167 7.92394 32.8069 7.56148 32.677L6.17203 34.0053C5.39676 33.6458 4.66176 33.1964 3.98717 32.6571L4.58121 30.8395C4.29929 30.5798 4.04758 30.3002 3.79587 30.0105L1.92313 30.4699C1.43985 29.7809 1.03711 29.0318 0.714919 28.2229L2.14464 26.9346C2.14464 26.9246 2.13457 26.9046 2.13457 26.8946C2.11444 26.8148 2.08423 26.7349 2.06409 26.655C1.99361 26.3853 1.9332 26.1057 1.88286 25.836L0.0302632 25.3067C-0.0502845 24.4479 -0.0200791 23.589 0.120879 22.7601L2.01375 22.3506C2.10437 21.9811 2.21512 21.6216 2.34601 21.2621L1.0069 19.8939C1.36937 19.1249 1.83252 18.3958 2.36615 17.7267L4.19861 18.3159C4.46039 18.0363 4.74231 17.7866 5.03429 17.537L4.57114 15.6794C5.26587 15.2 6.021 14.8006 6.83655 14.481L8.12531 15.8991C8.14545 15.8991 8.15551 15.8891 8.17565 15.8891C8.2562 15.8692 8.32668 15.8392 8.40723 15.8192C8.67908 15.7493 8.96099 15.6894 9.23284 15.6395L9.76647 13.8019C10.6324 13.722 11.4982 13.7619 12.3339 13.8918L12.7367 15.7593C13.1092 15.8492 13.4717 15.959 13.8341 16.0889L15.2236 14.7606C15.9988 15.1201 16.7338 15.5795 17.4084 16.1088L16.8144 17.9264C17.0963 18.1861 17.3581 18.4657 17.5997 18.7554L19.4725 18.296C19.9558 18.995 20.3686 19.7441 20.6807 20.553ZM12.8172 28.0431C14.841 26.9146 15.5659 24.368 14.4282 22.3606C13.2904 20.3533 10.723 19.6342 8.69921 20.7627C6.67545 21.8912 5.95052 24.4379 7.08826 26.4452C8.23606 28.4526 10.7935 29.1717 12.8172 28.0431Z" fill="#C6E0FF"/>
</g>
<defs>
<clipPath id="clip0">
<rect width="50" height="38" fill="white"/>
</clipPath>
</defs>
</svg>
