<svg width="14" height="14" viewBox="0 0 14 14" fill="none" xmlns="http://www.w3.org/2000/svg">
<path d="M0.753236 14C0.81425 14 0.875264 13.9925 0.935524 13.9774L3.94855 13.2234C4.08112 13.1902 4.2024 13.1216 4.29881 13.025L13.5586 3.7558C13.8433 3.47078 14 3.09226 14 2.68961C14 2.28696 13.8433 1.90844 13.5586 1.62342L12.3639 0.427533C11.7945 -0.142511 10.8032 -0.142511 10.2337 0.427533L0.97394 9.69677C0.877572 9.79336 0.809116 9.91426 0.775834 10.0466L0.0225779 13.0627C-0.00524547 13.1739 -0.00738245 13.29 0.0163292 13.4021C0.0400408 13.5143 0.088977 13.6195 0.159418 13.7099C0.22986 13.8002 0.319953 13.8733 0.422849 13.9236C0.525745 13.9739 0.638737 14 0.753236 14ZM11.2156 1.40778L12.5767 2.77667L11.3867 3.97444L10.0178 2.60556L11.2156 1.40778ZM2.1 10.5311L8.95222 3.67111L10.3211 5.04L3.46889 11.9L1.55556 12.4444L2.1 10.5311Z" fill="#1976D2"/>
</svg>
