<svg width="8" height="5" viewBox="0 0 8 5" fill="none" xmlns="http://www.w3.org/2000/svg">
<path fill-rule="evenodd" clip-rule="evenodd" d="M2.39909 0.412708C2.42807 0.441614 2.45106 0.475952 2.46675 0.513757C2.48244 0.551562 2.49051 0.59209 2.49051 0.63302C2.49051 0.67395 2.48244 0.714478 2.46675 0.752283C2.45106 0.790088 2.42807 0.824426 2.39909 0.853332L0.751732 2.50007L2.39909 4.14681C2.42802 4.17574 2.45097 4.21008 2.46663 4.24788C2.48229 4.28569 2.49035 4.3262 2.49035 4.36712C2.49035 4.40803 2.48229 4.44855 2.46663 4.48635C2.45097 4.52415 2.42802 4.5585 2.39909 4.58743C2.37016 4.61636 2.33581 4.63931 2.29801 4.65497C2.26021 4.67063 2.2197 4.67868 2.17878 4.67868C2.13786 4.67868 2.09735 4.67063 2.05955 4.65497C2.02175 4.63931 1.9874 4.61636 1.95847 4.58743L0.0914192 2.72038C0.0624406 2.69147 0.0394493 2.65714 0.0237621 2.61933C0.0080749 2.58153 0 2.541 0 2.50007C0 2.45914 0.0080749 2.41861 0.0237621 2.38081C0.0394493 2.343 0.0624406 2.30866 0.0914192 2.27976L1.95847 0.412708C1.98737 0.38373 2.02171 0.360738 2.05952 0.345051C2.09732 0.329364 2.13785 0.321289 2.17878 0.321289C2.21971 0.321289 2.26024 0.329364 2.29804 0.345051C2.33585 0.360738 2.37019 0.38373 2.39909 0.412708Z" fill="#0075FF"/>
<path fill-rule="evenodd" clip-rule="evenodd" d="M0.312012 2.50002C0.312012 2.41749 0.344796 2.33834 0.403153 2.27998C0.461509 2.22163 0.540658 2.18884 0.623186 2.18884H7.15786C7.24039 2.18884 7.31953 2.22163 7.37789 2.27998C7.43625 2.33834 7.46903 2.41749 7.46903 2.50002C7.46903 2.58255 7.43625 2.66169 7.37789 2.72005C7.31953 2.77841 7.24039 2.81119 7.15786 2.81119H0.623186C0.540658 2.81119 0.461509 2.77841 0.403153 2.72005C0.344796 2.66169 0.312012 2.58255 0.312012 2.50002Z" fill="#0075FF"/>
</svg>
