<svg width="120" height="24" viewBox="0 0 120 24" fill="none" xmlns="http://www.w3.org/2000/svg">
<path d="M7.74247 0H0.744193C0.329162 0 0 0.332595 0 0.73171V6.69182C0 7.09093 0.329162 7.42353 0.744193 7.42353H7.74247C8.1575 7.42353 8.48667 7.09093 8.48667 6.69182V0.73171C8.48667 0.332595 8.1575 0 7.74247 0Z" fill="#003970"/>
<path d="M17.5037 0H10.5054C10.0904 0 9.76123 0.332595 9.76123 0.73171V6.69182C9.76123 7.09093 10.0904 7.42353 10.5054 7.42353H17.5037C17.9187 7.42353 18.2479 7.09093 18.2479 6.69182V0.73171C18.2479 0.332595 17.9187 0 17.5037 0Z" fill="#003970"/>
<path d="M27.4201 0H20.3217C19.921 0 19.5918 0.305988 19.5918 0.678495V6.74504C19.5918 7.11754 19.921 7.42353 20.3217 7.42353H27.4201C27.8209 7.42353 28.15 7.11754 28.15 6.74504V0.678495C28.15 0.305988 27.8209 0 27.4201 0ZM26.6187 6.03993H21.1231V1.3836H26.6187V6.03993Z" fill="#E5564E"/>
<path d="M7.78495 8.27527H0.786674C0.371643 8.27527 0.0424805 8.60786 0.0424805 9.00698V14.9937C0.0424805 15.4061 0.371643 15.7254 0.786674 15.7254H7.78495C8.19998 15.7254 8.52915 15.3928 8.52915 14.9937V9.00698C8.52915 8.60786 8.19998 8.27527 7.78495 8.27527Z" fill="#003970"/>
<path d="M17.5462 8.2749H10.5479C10.1329 8.2749 9.80371 8.6075 9.80371 9.00661V14.9933C9.80371 15.4057 10.1329 15.725 10.5479 15.725H17.5462C17.9612 15.725 18.2904 15.3924 18.2904 14.9933V9.00661C18.2904 8.6075 17.9612 8.2749 17.5462 8.2749Z" fill="#003970"/>
<path d="M27.3343 8.2749H20.336C19.921 8.2749 19.5918 8.6075 19.5918 9.00661V14.9933C19.5918 15.4057 19.921 15.725 20.336 15.725H27.3343C27.7493 15.725 28.0785 15.3924 28.0785 14.9933V9.00661C28.0785 8.6075 27.7493 8.2749 27.3343 8.2749Z" fill="#003970"/>
<path d="M7.78495 16.5498H0.786674C0.371643 16.5498 0.0424805 16.8824 0.0424805 17.2815V23.2682C0.0424805 23.6806 0.371643 23.9999 0.786674 23.9999H7.78495C8.19998 23.9999 8.52915 23.6673 8.52915 23.2682V17.2815C8.52915 16.8824 8.19998 16.5498 7.78495 16.5498Z" fill="#003970"/>
<path d="M17.5462 16.5498H10.5479C10.1329 16.5498 9.80371 16.8824 9.80371 17.2815V23.2682C9.80371 23.6806 10.1329 23.9999 10.5479 23.9999H17.5462C17.9612 23.9999 18.2904 23.6673 18.2904 23.2682V17.2815C18.2904 16.8824 17.9612 16.5498 17.5462 16.5498Z" fill="#003970"/>
<path d="M27.3768 16.5498H20.3785C19.9634 16.5498 19.6343 16.8824 19.6343 17.2815V23.2682C19.6343 23.6806 19.9634 23.9999 20.3785 23.9999H27.3768C27.7918 23.9999 28.1209 23.6673 28.1209 23.2682V17.2815C28.1209 16.8824 27.7918 16.5498 27.3768 16.5498Z" fill="#003970"/>
<path d="M89.7884 7.30375C89.0729 7.02437 88.0424 6.87803 86.6972 6.87803H81.1157V17.255H86.6972C87.7133 17.255 88.5433 17.1752 89.1874 17.0022C89.8314 16.8426 90.4038 16.5499 90.8904 16.1508C92.0353 15.2062 92.6078 13.8492 92.6078 12.0532C92.6078 11.0288 92.4217 10.1375 92.0353 9.37914C91.563 8.42127 90.8046 7.72947 89.7884 7.30375ZM88.758 15.1663C88.2428 15.4191 87.4843 15.5521 86.4825 15.5521H83.2911V8.58091H86.4825C87.241 8.58091 87.8421 8.64743 88.3144 8.79378C88.7866 8.94012 89.1874 9.16628 89.5165 9.49888C90.1033 10.0976 90.4038 10.949 90.4038 12.0665C90.3895 13.6098 89.8457 14.6342 88.758 15.1663ZM105.216 8.15519C104.1 7.18401 102.583 6.69177 100.665 6.69177C98.1177 6.71838 96.3001 7.55652 95.2554 9.20619C94.6829 10.0709 94.411 11.0155 94.411 12.0665C94.411 12.7716 94.5541 13.4501 94.826 14.0887C95.1409 14.8204 95.5989 15.4457 96.1856 15.9778C97.3019 16.949 98.8046 17.4413 100.708 17.4413C103.241 17.4413 105.059 16.6031 106.161 14.9135C106.733 14.0488 107.005 13.1175 107.005 12.133C106.991 10.4967 106.404 9.17959 105.216 8.15519ZM104.458 13.5033C104.229 14.0089 103.899 14.4346 103.456 14.7805C102.726 15.3659 101.81 15.6585 100.708 15.6585C99.5918 15.6585 98.6758 15.3659 97.9459 14.7805C97.0729 14.0887 96.6436 13.184 96.6436 12.0532C96.6436 10.9224 97.0729 10.0177 97.9459 9.31262C98.6758 8.72726 99.5917 8.43457 100.694 8.43457C101.796 8.44788 102.712 8.74056 103.456 9.31262C104.329 10.0044 104.758 10.9357 104.758 12.1064C104.758 12.5854 104.658 13.051 104.458 13.5033ZM115.563 11.8537L119.857 6.87803H117.381L114.404 10.2838L111.485 6.87803H108.937L113.03 11.9601L108.622 17.255H111.098L114.189 13.5299L117.309 17.255H120L115.563 11.8537Z" fill="#E5564E"/>
<path d="M42.9194 11.8268C44.0786 11.3745 44.6511 10.6428 44.6511 9.6317C44.6511 8.71373 44.3362 8.02194 43.7065 7.543C43.3917 7.30353 43.0196 7.13058 42.5902 7.02415C42.1609 6.91772 41.5884 6.87781 40.8729 6.87781H33.9604V17.2548H40.9444C41.6457 17.2548 42.2468 17.2016 42.719 17.0818C43.1913 16.9621 43.6063 16.7758 43.9641 16.4965C44.6654 15.9643 45.0089 15.2193 45.0089 14.2747C45.0089 13.0774 44.3219 12.2525 42.9194 11.8268ZM36.1501 8.5807H40.5723C41.245 8.5807 41.7315 8.67382 42.0321 8.86008C42.3326 9.04633 42.4757 9.35232 42.4757 9.79134C42.4757 10.2171 42.3183 10.5364 42.0035 10.7359C41.7172 10.9089 41.245 11.002 40.558 11.002H36.1358V8.5807H36.1501ZM42.1466 15.2459C41.7888 15.4455 41.202 15.5519 40.4149 15.5519H36.1501V12.7182H40.4292C41.2306 12.7182 41.8031 12.8113 42.1609 13.0109C42.5902 13.237 42.8049 13.6228 42.8049 14.1417C42.7906 14.6472 42.5759 15.0197 42.1466 15.2459ZM47.4561 17.2548H49.6314V6.87781H47.4561V17.2548ZM62.2827 13.8357L54.9267 6.87781H52.966V17.2548H54.9553V10.1505L62.4974 17.2548H64.2577V6.87781H62.2827V13.8357ZM73.6317 6.87781H71.6996L66.5332 17.2548H68.5368L69.9536 14.6073H75.1916L76.6084 17.2548H78.9269L73.6317 6.87781ZM70.569 13.1838L72.6012 9.48536L74.6048 13.1838H70.569Z" fill="#003970"/>
</svg>
